<svg width="16" height="16" viewBox="0 0 16 16" fill="none" xmlns="http://www.w3.org/2000/svg">
<g id="bxl:twitter">
<path id="Vector" d="M14.425 4.6559C14.4352 4.80208 14.4352 4.94743 14.4352 5.09277C14.4352 9.54083 11.2728 14.6663 5.49357 14.6663C3.71306 14.6663 2.05895 14.1142 0.666992 13.1553C0.919791 13.1862 1.16323 13.197 1.42617 13.197C2.84074 13.2007 4.21526 12.6943 5.32816 11.7594C4.67231 11.7467 4.03653 11.5151 3.5096 11.0968C2.98268 10.6785 2.5909 10.0946 2.38899 9.4264C2.58327 9.4573 2.77833 9.47819 2.98275 9.47819C3.26442 9.47819 3.54765 9.43642 3.81059 9.36375C3.09882 9.20989 2.4588 8.79686 1.99935 8.19488C1.5399 7.59289 1.28939 6.83912 1.29041 6.06174V6.01997C1.7094 6.26973 2.19549 6.42594 2.71045 6.44682C2.27904 6.13991 1.92531 5.72345 1.68079 5.2346C1.43628 4.74574 1.3086 4.1997 1.30913 3.64517C1.30913 3.02035 1.4644 2.44732 1.73671 1.9478C2.52642 2.98779 3.51137 3.83859 4.62777 4.44511C5.74416 5.05164 6.96711 5.40035 8.2174 5.46866C8.16903 5.21807 8.13938 4.95828 8.13938 4.69767C8.13917 4.25575 8.22032 3.81813 8.37819 3.40981C8.53606 3.00149 8.76755 2.63049 9.05943 2.318C9.35131 2.00552 9.69785 1.75769 10.0792 1.58868C10.4606 1.41967 10.8694 1.33279 11.2822 1.33301C12.1873 1.33301 13.0042 1.73897 13.5785 2.39553C14.2821 2.24987 14.9568 1.97488 15.5728 1.58277C15.3382 2.36029 14.8469 3.0196 14.1909 3.43717C14.815 3.36097 15.4248 3.18528 16.0003 2.91593C15.5705 3.58678 15.0379 4.17505 14.425 4.6559Z" fill="white"/>
</g>
</svg>
